<?xml version="1.0" encoding="iso-8859-1"?>
<!-- Generator: Adobe Illustrator 19.0.0, SVG Export Plug-In . SVG Version: 6.00 Build 0)  -->
<svg version="1.1" id="Layer_1" xmlns="http://www.w3.org/2000/svg" xmlns:xlink="http://www.w3.org/1999/xlink" x="0px" y="0px"
	 viewBox="0 0 512 512" style="enable-background:new 0 0 512 512;" xml:space="preserve">
<g>
	<g>
		<path d="M435.967,257.412c-2.589-17.311-9.984-33.46-21.335-46.725c11.474-14.604,17.848-32.737,17.848-51.634
			c0-46.071-37.449-83.553-83.48-83.553c-39.563,0-72.762,27.69-81.324,64.716C182.161,109.194,90.829,167.244,81.488,256.74
			C35.84,261.048,0,299.625,0,346.421C0,396.166,40.222,436.5,90,436.5h332c49.626,0,90-40.409,90-90.079
			C512,300.637,478.238,263.967,435.967,257.412z M349,105.5c29.489,0,53.48,24.023,53.48,53.553
			c0,11.732-3.831,23.007-10.752,32.211c-20.016-12.075-43.695-16.162-66.521-11.518c-8.784-10.114-19.054-18.848-29.475-25.584
			C298.207,126.917,321.152,105.5,349,105.5z M422,406.5H90c-33.148,0-60-26.872-60-60.079c0-33.128,26.916-60.08,60-60.08h5.73
			c8.284,0,15-6.716,15-15c0-83.404,89.999-136.241,162.556-95.688c13.294,7.425,25.166,17.812,34.333,30.038
			c3.841,5.124,10.513,7.242,16.605,5.278C365.126,197.773,407,228.384,407,271.341c0,8.278,6.716,15,15,15
			c33.151,0,60,26.873,60,60.08C482,379.549,455.084,406.5,422,406.5z"/>
	</g>
</g>
<g>
</g>
<g>
</g>
<g>
</g>
<g>
</g>
<g>
</g>
<g>
</g>
<g>
</g>
<g>
</g>
<g>
</g>
<g>
</g>
<g>
</g>
<g>
</g>
<g>
</g>
<g>
</g>
<g>
</g>
</svg>
