<?xml version="1.0" encoding="iso-8859-1"?>
<!-- Generator: Adobe Illustrator 19.0.0, SVG Export Plug-In . SVG Version: 6.00 Build 0)  -->
<svg version="1.1" id="Layer_1" xmlns="http://www.w3.org/2000/svg" xmlns:xlink="http://www.w3.org/1999/xlink" x="0px" y="0px"
	 viewBox="0 0 472.615 472.615" style="enable-background:new 0 0 472.615 472.615;" xml:space="preserve">
<g>
	<g>
		<path d="M157.538,246.154v39.385c0,43.432,35.337,78.769,78.769,78.769s78.769-35.337,78.769-78.769v-39.385H157.538z
			 M295.385,285.538c0,32.577-26.5,59.077-59.077,59.077c-32.577,0-59.077-26.5-59.077-59.077v-19.692h118.154V285.538z"/>
	</g>
</g>
<g>
	<g>
		<rect x="256" y="196.923" width="19.692" height="59.077"/>
	</g>
</g>
<g>
	<g>
		<rect x="196.923" y="196.923" width="19.692" height="59.077"/>
	</g>
</g>
<g>
	<g>
		<path d="M349.538,384h-73.846c-16.289,0-29.538-13.25-29.538-29.538h-19.692c0,27.145,22.087,49.231,49.231,49.231h73.846
			c8.144,0,14.769,6.625,14.769,14.769c0,8.145-6.625,14.769-14.769,14.769h-83.692c-21.717,0-39.385,17.664-39.385,39.385h19.692
			c0-10.855,8.832-19.692,19.692-19.692h83.692c19,0,34.462-15.461,34.462-34.462S368.539,384,349.538,384z"/>
	</g>
</g>
<g>
	<g>
		<path d="M405.76,143.933c4.076-12.721,5.716-25.953,4.885-39.481C407.12,47.318,356.216,0.462,297.178,0c-0.302,0-0.596,0-0.894,0
			c-47.668,0-90.188,29.068-106.976,71.289c-17.486-13.827-40.096-20.606-63.058-18.453c-32.688,3.068-61.207,24.904-72.659,55.616
			c-5.068,13.577-6.366,27.529-3.889,41.576C19.644,164.144,0,194,0,226.817c0,46.107,35.245,79.914,84.404,81.741
			c12.36,18.98,37.664,26.211,51.981,26.211c16.087,0,28.913-1.693,43.164-10.125l-10.029-16.942
			c-10.481,6.202-19.731,7.375-33.134,7.375c-8.732,0-30.222-5.135-37.198-20.384l-2.63-5.75h-7.942
			c-40.582,0-68.923-25.548-68.923-62.125c0-27.374,17.986-52.115,44.75-61.567l8.731-3.087l-2.543-8.904
			c-3.663-12.836-3.192-25.596,1.414-37.922c8.832-23.693,30.831-40.52,56.043-42.885c22.366-2.106,44.211,6.616,58.36,23.336
			l12.76,15.068l4.356-19.259c9.462-41.769,48.38-71.904,92.716-71.904c0.25,0,0.495,0,0.745,0
			c48.914,0.385,91.062,38.952,93.967,85.972c0.894,14.528-1.707,28.643-7.721,41.961l-5.688,12.586l13.75,1.279
			c35.115,3.25,61.592,31.336,61.592,65.326c0,19.357-13.149,47.385-38.279,63.501c-18.538,11.894-50.52,21.539-97.563-0.077
			l-7.029-3.222l-4.798,6.067c-0.624,0.789-4.066,4.961-10.365,9.394l11.337,16.096c3.803-2.673,6.861-5.308,9.211-7.568
			c51.639,21.481,88.082,9.837,109.837-4.115c32.529-20.856,47.341-56.135,47.341-80.078
			C472.615,186.798,444.644,153.096,405.76,143.933z"/>
	</g>
</g>
<g>
</g>
<g>
</g>
<g>
</g>
<g>
</g>
<g>
</g>
<g>
</g>
<g>
</g>
<g>
</g>
<g>
</g>
<g>
</g>
<g>
</g>
<g>
</g>
<g>
</g>
<g>
</g>
<g>
</g>
</svg>
