<svg id="Capa_1" enable-background="new 0 0 511.994 511.994" height="512" viewBox="0 0 511.994 511.994" width="512" xmlns="http://www.w3.org/2000/svg"><g><path d="m255.997 124.224c-6.135 0-12.27-2.34-16.951-7.021l-65.628-65.628c-9.362-9.362-9.362-24.54 0-33.902s24.54-9.362 33.902 0l48.677 48.677 48.677-48.677c9.362-9.362 24.54-9.362 33.902 0s9.362 24.54 0 33.902l-65.628 65.628c-4.681 4.681-10.815 7.021-16.951 7.021z" fill="#7acdf9"/><path d="m255.997 192.982c-13.24 0-23.972-10.733-23.972-23.972v-130.878c0-13.24 10.733-23.972 23.972-23.972 13.24 0 23.972 10.733 23.972 23.972v130.878c.001 13.24-10.732 23.972-23.972 23.972z" fill="#a2ddfd"/><path d="m255.997 192.982c13.24 0 23.972-10.733 23.972-23.972v-41.521c-7.279-4.202-15.568-6.424-23.972-6.424-8.406 0-16.696 2.222-23.972 6.424v41.521c0 13.24 10.732 23.972 23.972 23.972z" fill="#7acdf9"/><path d="m31.46 226.121c-10.585.001-20.271-7.063-23.14-17.774-3.427-12.788 4.162-25.933 16.951-29.36l66.494-17.817-17.817-66.494c-3.427-12.789 4.162-25.934 16.951-29.36 12.786-3.429 25.933 4.161 29.36 16.951l24.022 89.65c3.427 12.789-4.162 25.934-16.951 29.36l-89.65 24.021c-2.078.557-4.166.823-6.22.823z" fill="#7acdf9"/><path d="m180.648 236.476c-4.068 0-8.188-1.036-11.964-3.216l-113.343-65.438c-11.466-6.619-15.394-21.281-8.774-32.747 6.619-11.466 21.281-15.395 32.747-8.774l113.343 65.439c11.466 6.619 15.394 21.281 8.774 32.747-4.44 7.689-12.498 11.989-20.783 11.989z" fill="#a2ddfd"/><path d="m168.684 233.26c3.776 2.18 7.896 3.216 11.964 3.216 8.284 0 16.343-4.3 20.783-11.99 6.62-11.466 2.692-26.127-8.774-32.747l-35.958-20.76c-14.787 8.537-23.972 24.447-23.972 41.52z" fill="#7acdf9"/><path d="m97.119 447.486c-2.054 0-4.141-.266-6.219-.823-12.789-3.426-20.378-16.571-16.951-29.36l17.817-66.494-66.494-17.817c-12.789-3.427-20.378-16.571-16.951-29.36s16.573-20.378 29.36-16.951l89.65 24.021c12.789 3.426 20.378 16.571 16.951 29.36l-24.022 89.65c-2.871 10.71-12.558 17.774-23.141 17.774z" fill="#7acdf9"/><path d="m67.35 388.894c-8.285 0-16.342-4.299-20.783-11.99-6.62-11.466-2.692-26.127 8.774-32.746l113.343-65.439c11.464-6.621 26.126-2.692 32.747 8.774 6.62 11.466 2.692 26.127-8.774 32.747l-113.343 65.438c-3.775 2.18-7.898 3.216-11.964 3.216z" fill="#a2ddfd"/><path d="m201.431 287.493c-6.621-11.466-21.283-15.395-32.747-8.774l-35.958 20.761c0 17.074 9.186 32.983 23.972 41.521l35.958-20.76c11.467-6.621 15.395-21.282 8.775-32.748z" fill="#7acdf9"/><path d="m255.997 387.755c6.135 0 12.27 2.34 16.951 7.021l65.628 65.628c9.362 9.362 9.362 24.54 0 33.902s-24.54 9.362-33.902 0l-48.677-48.677-48.677 48.677c-9.362 9.362-24.54 9.362-33.902 0s-9.362-24.54 0-33.902l65.628-65.628c4.681-4.681 10.815-7.021 16.951-7.021z" fill="#7acdf9"/><path d="m255.997 318.997c13.24 0 23.972 10.733 23.972 23.972v130.877c0 13.24-10.733 23.972-23.972 23.972-13.24 0-23.972-10.733-23.972-23.972v-130.877c-.001-13.24 10.732-23.972 23.972-23.972z" fill="#a2ddfd"/><path d="m255.997 318.997c-13.24 0-23.972 10.733-23.972 23.972v41.521c7.278 4.203 15.568 6.424 23.972 6.424 8.406 0 16.696-2.222 23.972-6.424v-41.521c0-13.24-10.733-23.972-23.972-23.972z" fill="#7acdf9"/><path d="m480.534 285.858c10.585-.001 20.271 7.063 23.14 17.774 3.427 12.789-4.162 25.933-16.951 29.36l-66.494 17.817 17.817 66.494c3.427 12.789-4.162 25.934-16.951 29.36-12.786 3.429-25.933-4.161-29.36-16.951l-24.021-89.65c-3.427-12.789 4.162-25.934 16.951-29.36l89.65-24.021c2.077-.557 4.165-.823 6.219-.823z" fill="#7acdf9"/><path d="m331.346 275.503c4.068 0 8.188 1.036 11.964 3.216l113.343 65.439c11.466 6.619 15.394 21.281 8.774 32.747-6.619 11.466-21.281 15.395-32.747 8.774l-113.343-65.439c-11.466-6.619-15.394-21.281-8.774-32.747 4.44-7.691 12.498-11.99 20.783-11.99z" fill="#a2ddfd"/><path d="m343.31 278.719c-3.776-2.18-7.896-3.216-11.964-3.216-8.284 0-16.343 4.3-20.783 11.99-6.62 11.466-2.692 26.127 8.774 32.747l35.958 20.76c14.787-8.537 23.972-24.447 23.972-41.52z" fill="#7acdf9"/><path d="m414.875 64.493c2.054 0 4.141.266 6.219.823 12.789 3.426 20.378 16.571 16.951 29.36l-17.817 66.494 66.494 17.817c12.789 3.427 20.378 16.571 16.951 29.36s-16.574 20.378-29.36 16.951l-89.65-24.021c-12.789-3.426-20.378-16.571-16.951-29.36l24.021-89.65c2.872-10.71 12.558-17.774 23.142-17.774z" fill="#7acdf9"/><path d="m444.644 123.085c8.285 0 16.342 4.299 20.783 11.99 6.62 11.466 2.692 26.127-8.774 32.747l-113.343 65.438c-11.464 6.62-26.126 2.692-32.747-8.774-6.62-11.466-2.692-26.127 8.774-32.747l113.343-65.439c3.775-2.179 7.898-3.215 11.964-3.215z" fill="#a2ddfd"/><path d="m310.563 224.486c6.621 11.466 21.283 15.395 32.747 8.774l35.958-20.761c0-17.074-9.186-32.983-23.972-41.521l-35.958 20.76c-11.467 6.621-15.395 21.282-8.775 32.748z" fill="#7acdf9"/><path d="m255.997 366.942c-4.139 0-8.278-1.07-11.986-3.212l-75.327-43.49c-7.417-4.282-11.986-12.196-11.986-20.76v-86.98c0-8.564 4.569-16.478 11.986-20.76l75.327-43.49c7.416-4.283 16.556-4.283 23.972 0l75.327 43.49c7.417 4.282 11.986 12.196 11.986 20.76v86.979c0 8.564-4.569 16.478-11.986 20.76l-75.327 43.49c-3.708 2.142-7.847 3.213-11.986 3.213zm-51.354-81.303 51.354 29.649 51.354-29.649v-59.299l-51.354-29.649-51.354 29.649z" fill="#a2ddfd"/><path d="m311.101 219.845-51.354-29.649c-2.321-1.34-5.18-1.34-7.5 0l-51.355 29.649c-2.32 1.34-3.75 3.815-3.75 6.495v59.299c0 2.68 1.43 5.155 3.75 6.495l51.355 29.649c2.32 1.34 5.18 1.34 7.5 0l51.354-29.649c2.32-1.34 3.75-3.815 3.75-6.495v-59.299c0-2.68-1.429-5.155-3.75-6.495zm-11.25 61.464-43.854 25.319-43.855-25.319v-50.639l43.855-25.319 43.854 25.319zm211.067 20.382c-4.492-16.762-21.785-26.746-38.545-22.254l-77.058 20.647-32.518-18.775v-50.639l32.518-18.775 77.057 20.647c16.834 4.508 34.073-5.562 38.546-22.254 4.491-16.763-5.492-34.054-22.254-38.546l-19.31-5.174c7.741-9.821 9.193-23.77 2.569-35.243s-19.43-17.189-31.806-15.397l5.174-19.311c4.491-16.762-5.493-34.054-22.254-38.545-7.611-2.039-15.65-1.165-22.638 2.463-3.676 1.908-5.11 6.436-3.202 10.112 1.908 3.677 6.436 5.111 10.112 3.202 12.614-6.547 27.196 5.067 23.493 18.887l-8.238 30.746-40.348 23.295 12.508-46.681c1.072-4.001-1.303-8.113-5.304-9.186-3.994-1.067-8.113 1.302-9.186 5.304l-16.39 61.169-32.519 18.775-43.854-25.32v-37.552l56.41-56.409c12.271-12.271 12.271-32.237 0-44.508-12.271-12.27-32.237-12.271-44.508 0l-14.137 14.136c-4.637-11.613-15.991-19.845-29.239-19.845s-24.602 8.232-29.237 19.847l-14.136-14.137c-12.271-12.271-32.238-12.27-44.509 0-12.271 12.271-12.271 32.237 0 44.508l56.41 56.41v37.551l-43.854 25.319-32.52-18.775-20.647-77.057c-4.503-16.802-21.739-26.755-38.546-22.254-16.762 4.492-26.745 21.783-22.254 38.545l5.174 19.311c-12.375-1.793-25.182 3.924-31.806 15.397s-5.172 25.422 2.569 35.243l-19.311 5.174c-16.762 4.492-26.745 21.783-22.254 38.546 4.486 16.74 21.76 26.752 38.545 22.254l77.058-20.647 32.519 18.775v50.639l-32.519 18.775-77.057-20.647c-16.764-4.489-34.055 5.492-38.546 22.254-4.492 16.763 5.492 34.054 22.254 38.546l19.31 5.174c-7.741 9.821-9.193 23.77-2.569 35.243 6.55 11.345 19.25 17.212 31.806 15.394l-5.175 19.314c-4.491 16.762 5.493 34.054 22.254 38.545 16.802 4.501 34.042-5.45 38.546-22.255l20.647-77.057 32.52-18.775 43.854 25.319v37.552l-44.828 44.828c-4.739 4.738-1.318 12.803 5.303 12.803 1.919 0 3.839-.732 5.303-2.197l34.221-34.221v46.591l-22.508 22.507c-10.079 10.079-27.413 3.341-28.101-10.844-.201-4.137-3.703-7.317-7.854-7.128-4.137.201-7.329 3.717-7.128 7.855.798 16.448 14.332 29.942 31.436 29.942 8.406 0 16.309-3.274 22.254-9.218l14.137-14.136c4.635 11.614 15.989 19.847 29.238 19.847 13.248 0 24.602-8.232 29.237-19.847l14.136 14.136c12.27 12.27 32.237 12.272 44.509 0 12.271-12.271 12.271-32.237 0-44.508l-56.41-56.41v-37.551l43.854-25.319 32.52 18.775 20.647 77.057c4.491 16.758 21.7 26.765 38.546 22.254 16.762-4.492 26.745-21.783 22.254-38.545l-5.175-19.314c22.474 3.257 40.779-17.524 34.951-39.276-1.127-4.206-3.074-8.049-5.694-11.366l19.292-5.169c16.763-4.493 26.747-21.784 22.255-38.546zm-223.448-256.207 22.508-22.507c6.437-6.437 16.857-6.438 23.295 0 6.422 6.422 6.422 16.873 0 23.295l-45.803 45.803zm197.311 140.748c8.773 2.351 13.999 11.401 11.647 20.174-2.351 8.774-11.403 13.999-20.174 11.648l-62.568-16.765 40.349-23.295zm-48.351-53.436c7.866-4.541 17.96-1.836 22.501 6.029 4.542 7.866 1.836 17.96-6.029 22.502l-90.106 52.022v-.85c0-11.207-6.03-21.651-15.736-27.255l-.737-.425zm-196.905-94.663c0-9.083 7.389-16.473 16.472-16.473s16.473 7.39 16.473 16.473v104.046l-.736-.425c-9.707-5.605-21.766-5.605-31.473 0l-.736.425zm-60.803 8.139c-6.422-6.423-6.422-16.872 0-23.295 6.423-6.422 16.873-6.422 23.296 0l22.507 22.508v46.591zm-85.881 26.289c8.792-2.356 17.818 2.852 20.174 11.647l16.765 62.568-40.348-23.295-8.238-30.746c-2.352-8.773 2.873-17.823 11.647-20.174zm-57.102 145.492c-8.771 2.352-17.824-2.874-20.174-11.648-2.351-8.773 2.874-17.823 11.647-20.174l30.747-8.239 40.349 23.295zm23.353-56.726c-7.866-4.542-10.571-14.636-6.029-22.502 4.542-7.865 14.634-10.571 22.502-6.029l90.107 52.023-.737.425c-9.706 5.604-15.736 16.048-15.736 27.255v.85zm-31.879 164.42c-8.792-2.356-14.005-11.379-11.647-20.174 2.35-8.774 11.401-14 20.174-11.648l62.568 16.765-40.349 23.295zm85.802 102.023c-2.355 8.791-11.379 14.007-20.174 11.648-8.773-2.351-13.998-11.401-11.648-20.174l8.238-30.746 40.348-23.295zm-37.451-48.587c-7.864 4.54-17.96 1.837-22.502-6.03-4.542-7.866-1.836-17.96 6.029-22.501l90.107-52.023v.85c0 11.208 6.03 21.651 15.736 27.255l.736.425c-9.293 5.367-80.895 46.706-90.106 52.024zm196.905 94.663c0 9.083-7.389 16.473-16.472 16.473s-16.473-7.39-16.473-16.473v-104.047l.736.425c9.726 5.617 21.733 5.626 31.473 0l.736-.425zm60.803-8.139c6.422 6.423 6.422 16.872 0 23.295-6.423 6.422-16.873 6.422-23.296 0l-22.507-22.508v-46.591zm6.288-151.963-75.328 43.491c-5 2.887-11.471 2.887-16.471-.001l-75.327-43.49c-5.081-2.933-8.236-8.399-8.236-14.265v-86.979c0-5.866 3.156-11.332 8.236-14.265l75.327-43.49c5.08-2.934 11.392-2.934 16.472 0l75.326 43.49c5.081 2.934 8.237 8.399 8.237 14.265v86.979c0 5.866-3.155 11.332-8.236 14.265zm79.593 125.674c-8.788 2.358-17.817-2.851-20.174-11.647l-16.765-62.568 40.348 23.295 8.238 30.746c2.352 8.773-2.873 17.823-11.647 20.174zm39.779-66.264c-4.542 7.866-14.636 10.57-22.501 6.03l-90.107-52.023.737-.425c9.707-5.604 15.736-16.048 15.736-27.255v-.85l90.106 52.022c7.865 4.541 10.57 14.635 6.029 22.501zm25.85-47.407-30.747 8.239-40.349-23.295 62.569-16.765c8.771-2.351 17.823 2.874 20.174 11.648 2.357 8.792-2.853 17.817-11.647 20.173z"/></g></svg>