<?xml version="1.0" encoding="iso-8859-1"?>
<!-- Generator: Adobe Illustrator 21.0.0, SVG Export Plug-In . SVG Version: 6.00 Build 0)  -->
<svg version="1.1" id="Capa_1" xmlns="http://www.w3.org/2000/svg" xmlns:xlink="http://www.w3.org/1999/xlink" x="0px" y="0px"
	 viewBox="0 0 609.156 609.156" style="enable-background:new 0 0 609.156 609.156;" xml:space="preserve">
<g>
	<g>
		<g id="filled_outline_23_">
			<rect x="294.425" y="548.24" style="fill:#FAB349;" width="20.305" height="60.916"/>
			
				<rect x="547.673" y="379.017" transform="matrix(0.3826 -0.9239 0.9239 0.3826 -33.9236 768.1924)" style="fill:#FAB349;" width="20.305" height="60.925"/>
			<circle style="fill:#FAB349;" cx="304.578" cy="304.578" r="213.205"/>
			<path style="fill:#E04E2D;" d="M223.357,355.341h-10.153c-33.646,0-60.916-27.27-60.916-60.916V274.12
				c0-22.427,18.183-40.61,40.61-40.61h91.373v60.916c0,19.178-9.026,37.23-24.366,48.732l0,0
				C249.358,351.067,236.535,355.341,223.357,355.341z"/>
			<path style="fill:#E04E2D;" d="M385.799,355.341h10.153c33.646,0,60.916-27.27,60.916-60.916V274.12
				c0-22.427-18.183-40.61-40.61-40.61h-91.373v60.916c0,19.178,9.026,37.23,24.366,48.732l0,0
				C359.798,351.067,372.621,355.341,385.799,355.341z"/>
			<rect x="294.425" y="0" style="fill:#FAB349;" width="20.305" height="60.916"/>
			
				<rect x="189.516" y="20.867" transform="matrix(0.9239 -0.3826 0.3826 0.9239 -4.4465 80.2999)" style="fill:#FAB349;" width="20.305" height="60.925"/>
			
				<rect x="399.317" y="527.372" transform="matrix(0.9239 -0.3826 0.3826 0.9239 -182.2746 199.1097)" style="fill:#FAB349;" width="20.305" height="60.925"/>
			
				<rect x="100.592" y="80.297" transform="matrix(0.7071 -0.7071 0.7071 0.7071 -45.8753 110.7455)" style="fill:#FAB349;" width="20.305" height="60.905"/>
			
				<rect x="488.25" y="467.951" transform="matrix(0.7071 -0.7071 0.7071 0.7071 -206.4459 498.403)" style="fill:#FAB349;" width="20.305" height="60.905"/>
			
				<rect x="41.17" y="169.219" transform="matrix(0.3826 -0.9239 0.9239 0.3826 -152.8025 170.6997)" style="fill:#FAB349;" width="20.305" height="60.925"/>
			<rect y="294.425" style="fill:#FAB349;" width="60.916" height="20.305"/>
			<rect x="548.24" y="294.425" style="fill:#FAB349;" width="60.916" height="20.305"/>
			
				<rect x="20.857" y="399.313" transform="matrix(0.9238 -0.3828 0.3828 0.9238 -152.8386 50.8358)" style="fill:#FAB349;" width="60.924" height="20.305"/>
			
				<rect x="527.36" y="189.519" transform="matrix(0.9238 -0.3828 0.3828 0.9238 -33.9453 228.7501)" style="fill:#FAB349;" width="60.924" height="20.305"/>
			
				<rect x="80.294" y="488.253" transform="matrix(0.7071 -0.7071 0.7071 0.7071 -319.9893 224.289)" style="fill:#FAB349;" width="60.905" height="20.305"/>
			
				<rect x="467.948" y="100.596" transform="matrix(0.7071 -0.7071 0.7071 0.7071 67.6674 384.8599)" style="fill:#FAB349;" width="60.905" height="20.305"/>
			
				<rect x="169.197" y="547.685" transform="matrix(0.3828 -0.9238 0.9238 0.3828 -392.118 528.7416)" style="fill:#FAB349;" width="60.924" height="20.305"/>
			
				<rect x="379.009" y="41.174" transform="matrix(0.3828 -0.9238 0.9238 0.3828 205.3046 409.9587)" style="fill:#FAB349;" width="60.924" height="20.305"/>
			<path style="fill:#E68A00;" d="M304.578,406.002c-16.833,0.03-33.219-5.391-46.702-15.462l12.183-16.244
				c20.488,15.229,48.55,15.229,69.038,0l12.183,16.244C337.797,400.611,321.411,406.033,304.578,406.002z"/>
			<path d="M304.578,81.221c-123.354,0-223.357,100.003-223.357,223.357s100.003,223.357,223.357,223.357
				s223.357-100.003,223.357-223.357C527.793,181.275,427.881,81.363,304.578,81.221z M304.578,101.526
				c88.632,0.122,166.99,57.616,193.691,142.136h-41.402v0.315c-9.503-12.924-24.569-20.579-40.61-20.62H192.899
				c-16.041,0.041-31.108,7.696-40.61,20.62v-0.315h-41.402C137.588,159.142,215.946,101.648,304.578,101.526z M314.731,263.968
				h-20.305v-20.305h20.305V263.968z M335.036,243.662h81.221c16.823,0,30.458,13.635,30.458,30.458v20.305
				c-0.03,28.021-22.742,50.733-50.763,50.763h-10.153c-28.031,0-50.763-22.732-50.763-50.763V243.662z M274.12,243.662v50.763
				c0,28.031-22.732,50.763-50.763,50.763h-10.153c-28.021-0.03-50.733-22.742-50.763-50.763V274.12
				c0-16.823,13.635-30.458,30.458-30.458H274.12z M304.578,507.63c-112.146,0.02-203.072-90.866-203.093-203.011
				c0-13.655,1.371-27.27,4.102-40.651h37.565c-0.68,3.34-1.015,6.741-1.015,10.153v20.305c0.051,39.23,31.839,71.017,71.068,71.068
				h10.153c39.25,0,71.068-31.818,71.068-71.068v-10.153h20.305v10.153c0,39.25,31.818,71.068,71.068,71.068h10.153
				c39.23-0.051,71.017-31.839,71.068-71.068V274.12c0-3.411-0.335-6.812-1.015-10.153h37.565
				c22.427,109.882-48.458,217.134-158.34,239.561C331.848,506.259,318.233,507.63,304.578,507.63z"/>
			<rect x="294.425" y="0" width="20.305" height="60.916"/>
			<rect x="294.425" y="548.24" width="20.305" height="60.916"/>
			
				<rect x="189.516" y="20.867" transform="matrix(0.9239 -0.3826 0.3826 0.9239 -4.4465 80.2999)" width="20.305" height="60.925"/>
			
				<rect x="399.317" y="527.372" transform="matrix(0.9239 -0.3826 0.3826 0.9239 -182.2746 199.1097)" width="20.305" height="60.925"/>
			
				<rect x="100.592" y="80.297" transform="matrix(0.7071 -0.7071 0.7071 0.7071 -45.8753 110.7455)" width="20.305" height="60.905"/>
			
				<rect x="488.25" y="467.951" transform="matrix(0.7071 -0.7071 0.7071 0.7071 -206.4459 498.403)" width="20.305" height="60.905"/>
			
				<rect x="41.17" y="169.219" transform="matrix(0.3826 -0.9239 0.9239 0.3826 -152.8025 170.6997)" width="20.305" height="60.925"/>
			
				<rect x="547.673" y="379.017" transform="matrix(0.3826 -0.9239 0.9239 0.3826 -33.9236 768.1924)" width="20.305" height="60.925"/>
			<rect y="294.425" width="60.916" height="20.305"/>
			<rect x="548.24" y="294.425" width="60.916" height="20.305"/>
			
				<rect x="20.865" y="399.329" transform="matrix(0.9239 -0.3826 0.3826 0.9239 -152.7641 50.7948)" width="60.925" height="20.305"/>
			
				<rect x="527.37" y="189.528" transform="matrix(0.9239 -0.3826 0.3826 0.9239 -33.9543 228.6229)" width="60.925" height="20.305"/>
			
				<rect x="80.294" y="488.253" transform="matrix(0.7071 -0.7071 0.7071 0.7071 -319.9893 224.289)" width="60.905" height="20.305"/>
			
				<rect x="467.948" y="100.596" transform="matrix(0.7071 -0.7071 0.7071 0.7071 67.6674 384.8599)" width="60.905" height="20.305"/>
			
				<rect x="169.197" y="547.685" transform="matrix(0.3828 -0.9238 0.9238 0.3828 -392.118 528.7416)" width="60.924" height="20.305"/>
			
				<rect x="379.009" y="41.174" transform="matrix(0.3828 -0.9238 0.9238 0.3828 205.3046 409.9587)" width="60.924" height="20.305"/>
			<path d="M270.059,374.296l-12.183,16.244c27.717,20.62,65.687,20.62,93.404,0l-12.183-16.244
				C318.609,389.525,290.547,389.525,270.059,374.296z"/>
		</g>
	</g>
</g>
<g>
</g>
<g>
</g>
<g>
</g>
<g>
</g>
<g>
</g>
<g>
</g>
<g>
</g>
<g>
</g>
<g>
</g>
<g>
</g>
<g>
</g>
<g>
</g>
<g>
</g>
<g>
</g>
<g>
</g>
</svg>
